<svg xmlns="http://www.w3.org/2000/svg" xmlns:xlink="http://www.w3.org/1999/xlink" viewBox="0 0 3840 2160"><defs><style>.cls-1{fill:url(#Naamloos_verloop_4);}.cls-2{fill:#6ed3cc;}.cls-3{fill:#5bb5b1;}.cls-4{fill:#48aaaa;}.cls-5{fill:#3c9599;}.cls-6{fill:#348891;}</style><linearGradient id="Naamloos_verloop_4" x1="1920" x2="1920" y2="2160" gradientUnits="userSpaceOnUse"><stop offset="0" stop-color="#29abe2"/><stop offset="0.09" stop-color="#48acca"/><stop offset="0.26" stop-color="#7ead9f"/><stop offset="0.43" stop-color="#abae7b"/><stop offset="0.6" stop-color="#ceaf5f"/><stop offset="0.75" stop-color="#e7b04b"/><stop offset="0.89" stop-color="#f6b03f"/><stop offset="1" stop-color="#fbb03b"/></linearGradient></defs><g id="Background"><rect class="cls-1" width="3840" height="2160"/></g><g id="Mountains"><g id="Laag_5" data-name="Laag 5"><path class="cls-2" d="M5279.5,6599.72c0-27.5,13.92-61.27,30.93-75.05s40.8-39.83,52.85-57.91,33.19-47,47-64.17,47.43-29.07,74.79-26.33l25.72,2.57c27.36,2.74,53.52,27.16,58.12,54.27l11.43,67.32c4.61,27.11,8.37,71.13,8.37,97.82s12.61,67.16,28,89.94l16,23.6c15.41,22.78,38.58,57.62,51.49,77.42s36.16,36,51.65,36,43,5.63,61.05,12.52,43.17,32.52,55.77,57l7.42,14.4c12.59,24.45,27.12,62.77,32.29,85.15s21.36,56.19,36,75.13,47.74,40.77,73.56,48.52,62.87,30,82.31,49.44l10.68,10.68c19.45,19.45,38.78,57.6,43,84.78l3.58,23.25c4.18,27.18,29.4,55,56,61.81l37.73,9.65c26.64,6.82,70.94,12.39,98.44,12.39H6387c27.5,0,65.5-11.27,84.44-25s53-37.79,75.63-53.37l17.77-12.22c22.66-15.58,60.71-39.54,84.55-53.25l38.53-22.15c23.84-13.71,64.23-16.57,89.77-6.36l1.06.43c25.53,10.21,65.15,31,88,46.31l10.71,7.13c22.88,15.26,55.2,45.66,71.82,67.57l8.43,11.12c16.62,21.91,41.49,56.94,55.26,77.84s47.48,39.75,74.9,41.86L7219.87,7460c27.41,2.12,72.35,3.85,99.85,3.85h34.61c27.5,0,71.76-5.72,98.35-12.72l141.21-37.16c26.59-7,69.17-21.24,94.63-31.66l45.18-18.48c25.45-10.41,63.66-33.21,84.91-50.67l10.38-8.53c21.25-17.45,48.5-43,60.55-56.78s38.12-19.4,57.92-12.52,56.39,3,81.31-8.62l50.25-23.45c24.92-11.63,65.93-30.14,91.14-41.12l30.42-13.26c25.21-11,65.55-24.21,89.66-29.37s62.91-21.32,86.23-35.89l15.37-9.61c23.32-14.58,48.82-48.07,56.67-74.42l15.28-51.29c7.85-26.36,25.85-67.22,40-90.8l4.9-8.16c14.15-23.58,37.92-61.78,52.83-84.89l8.4-13c14.9-23.1,39.78-35,55.28-26.36s50,13.54,76.69,11,63.31,3.05,81.39,12.52,38.41,39,45.18,65.68l25.47,100.29c6.77,26.66,32.23,38,56.58,25.22l36.68-19.25c24.35-12.79,53.81-43.62,65.46-68.53l26.48-56.56c11.66-24.91,24.33-67.57,28.16-94.8l14.25-101.32c3.83-27.23,11.9-71.46,17.94-98.29l9-40.18c6-26.83,11-26.28,11,1.22V8229.5a50.15,50.15,0,0,1-50,50h-3740a50.15,50.15,0,0,1-50-50Z" transform="translate(-5279.5 -6119.5)"/></g><g id="Laag_7" data-name="Laag 7"><path class="cls-3" d="M5279.5,6912.76c0-27.5,7.36-71.26,16.35-97.25l4.13-11.93c9-26,26.62-67.27,39.19-91.73L5353,6685c12.57-24.46,36.23-36.73,52.58-27.26s32,39.6,34.84,66.95l2.32,22.61c2.81,27.36,15.95,69.46,29.2,93.55,0,0,10.34,18.8,22.86,50.1s53.22,84.53,53.22,106.44,4.86,28.55,4.86,28.55c16.27,22.18,51.72,36.34,78.79,31.49l23.66-4.25c27.06-4.86,67.84-21.45,90.61-36.88l14.25-9.65c22.77-15.42,50.48-48.63,61.58-73.79l6.59-14.94c11.1-25.16,40.61-40.82,65.57-34.79s61.82,26.33,81.91,45.11l24,22.47c20.08,18.79,57,43.5,82,54.91l87.45,39.89c25,11.41,66.38,12.39,91.91,2.18l79.33-31.73c25.53-10.21,61.29-1.68,79.46,19,0,0,35.83,40.72,39,72s63.14,138,63.14,138c13.49,24,45.17,52.51,70.41,63.43l24,10.39c25.24,10.92,63.5,16.33,85,12s58.78-18.8,82.78-32.22l19.14-10.69c24-13.42,57.74-15.24,74.95-4.05s49.62,28.1,72,37.57,62.85,21.17,89.92,26l76.86,13.72c27.07,4.84,69-1.88,93.25-14.91l74.73-40.25c24.22-13,66.48-25.17,93.92-27,0,0,141.06-9.25,141.06.14s141.2,23.28,141.2,23.28c27.37,2.69,67.65-8.76,89.51-25.44l39.46-30.12c21.86-16.68,59-41.91,82.62-56.05l70.77-42.47c23.58-14.15,59.78-20.09,80.44-13.2s60,10.35,87.33,7.7c0,0,47.28-4.57,72.32-14s259.86-138.67,259.86-138.67c24.09-13.26,61.59-37.89,83.33-54.72l18-13.92c21.75-16.83,55-46.95,73.9-66.93l40.85-43.18c18.89-20,54.11-25.55,78.25-12.38,0,0,59.41,32.41,62.54,44.93s23.81,41,23.81,41c16.17,22.24,51.24,35,77.91,28.31l15.69-3.92c26.67-6.67,58-32.53,69.59-57.46l20.44-43.94c11.59-24.93,32.69-64.61,46.87-88.17l38.9-64.59c14.18-23.56,25.79-20.33,25.79,7.17V8229.5a50.15,50.15,0,0,1-50,50h-3740a50.15,50.15,0,0,1-50-50Z" transform="translate(-5279.5 -6119.5)"/></g><g id="Laag_4" data-name="Laag 4"><path class="cls-4" d="M5279.5,7128.76c0-27.5,4-27.86,8.9-.8l12.77,70.64c4.89,27.06,13.12,60.47,18.29,74.25s19.25,32.08,31.3,40.69,34.59,15.66,50.09,15.66,45.08-4.23,65.74-9.4,59-2.46,85.13,6l11.29,3.66c26.17,8.46,61,21,77.32,27.91s43.12,12.52,59.47,12.52,45.24-9.16,64.18-20.35,44.29-27.39,56.35-36,33.88-26.21,48.52-39.13,48.43-28.93,75.11-35.6c0,0,1.58-.4,1.58,12.12v12.53c17.22,6.88,40.46,4.77,51.66-4.7s32.32-26.68,46.95-38.24,47.11-30.29,72.17-41.63l2.8-1.26c25.05-11.34,55.41-20.61,67.47-20.61s33.88,9.56,48.52,21.24,43.6,36,64.37,54l9,7.81c20.77,18,54.66,45.45,75.32,60.94s58.52,36.37,84.13,46.4c0,0,25.44,9.95,28.57,22.47s90.78,56.35,100.17,56.35h47.05c27.5,0,72.34-2.63,99.65-5.84,0,0,56.78-6.68,50.52,5.84s47.59,34.4,47.59,34.4c25.48,10.35,68.72,20.93,96.1,23.51l66.36,6.26c27.38,2.59,69.5-3.75,93.6-14.08s63.55-27.94,87.66-39.13,65.82-25.07,92.71-30.83c0,0,38.76-8.3,60.68-5.17S7461.28,7419,7461.28,7419c27.22,4,70.61,9.33,96.44,11.91s69.4,3.15,96.84,1.26c0,0,131.68-9.08,144.2-9.08s140-38.69,140-38.69c26.32-8,67.56-25.37,91.66-38.62l37.59-20.68c24.1-13.26,63.57-34.87,87.71-48l15.51-8.46c24.15-13.17,63.76-34.51,88-47.43l58.85-31.3c24.27-12.91,66.61-24.66,94.07-26.1,0,0,69-3.64,78.42,12s19.37,17.09,19.37,17.09c27.23,3.91,70.71-.39,96.64-9.56l18.41-6.51c25.93-9.17,65.71-29.37,88.41-44.9l36.42-24.92c22.7-15.53,58.55-42.64,79.68-60.25,0,0,36.72-30.6,52.37-36.86s50.31-8.83,50.31-8.83c27.43-2,66.07,2.65,85.87,10.4s50.72,10.56,68.71,6.26,32.72,14.67,32.72,42.17V8229.5a50.15,50.15,0,0,1-50,50h-3740a50.15,50.15,0,0,1-50-50Z" transform="translate(-5279.5 -6119.5)"/></g><g id="Laag_3" data-name="Laag 3"><path class="cls-5" d="M5279.5,7535.72c0-27.5,15.33-58.45,34.07-68.79s51.35-33.18,72.47-50.79l17.09-14.24c21.13-17.6,56.73-32,79.11-32s54.08,7,70.43,15.65,43.13,25.52,59.48,37.57,36.78,31.07,45.39,42.26,26.22,29.5,39.13,40.7,39,20.34,57.92,20.34,53.45-3.52,76.69-7.82,64.13-13.13,90.86-19.61l6.12-1.48c26.72-6.48,70.42-6.33,97.09.34l3.16.79c26.68,6.67,71,13.45,98.43,15.07,0,0,3.3.19,15.82,12.71s68.87,21.92,100.17,21.92,97,18.78,112.7,0,74.12-57.46,74.12-57.46c22.94-15.17,64.21-27.59,91.71-27.59h69c27.5,0,71.63,6.19,98.07,13.76,0,0,117.84,33.72,127.23,36.85s97.88,40.17,97.88,40.17c25.37,10.62,68.59,20.57,96,22.1,0,0,173.77,9.73,190.27,9.73s176.15-72,194.93-75.13,182.14-25.95,182.14-25.95c27.23-3.81,71.91-4.68,99.27-1.94,0,0,247.64,24.76,300.86,49.8s347.47,62.61,381.91,97.05,199.73,87.91,199.73,87.91c26.17,8.47,70.07,15.39,97.57,15.39h241.22c27.5,0,66.19-15.63,86-34.73,0,0,54.81-52.92,64.2-52.92s30.8-15.06,30.8-15.06c22.5-15.82,40.9-6.27,40.9,21.23v578a50.15,50.15,0,0,1-50,50h-3740a50.15,50.15,0,0,1-50-50Z" transform="translate(-5279.5 -6119.5)"/></g><g id="Laag_2" data-name="Laag 2"><path class="cls-6" d="M5279.5,7933.28c0-27.5,22.14-54,49.21-58.86l145-26.1c27.06-4.88,70.6-15.82,96.76-24.32l30.11-9.78c26.15-8.5,69.29-21.26,95.86-28.34L5834.62,7749c26.57-7.09,70.81-12.89,98.31-12.89h169.22c27.5,0,71.57,6.43,97.92,14.28,0,0,246.34,73.37,255.73,82.77s262.34,91.07,262.34,91.07c26.17,8.45,69.87,18.4,97.12,22.12l245.26,33.44c27.25,3.72,71.87,9.59,99.15,13.05l320.27,40.63c27.28,3.46,71.42.78,98.08-6l175.4-44.36c26.66-6.74,68.6-22.32,93.19-34.62L7963.78,7890c24.6-12.3,66.6-27.61,93.34-34l450.59-108.14c26.74-6.42,71-9.82,98.45-7.56l166.42,13.7c27.41,2.26,72.16,1.31,99.45-2.1l76.07-9.51c27.29-3.41,71.23-12.47,97.63-20.14l1-.29c26.41-7.67,53.59-16.76,60.39-20.2s12.37,16.24,12.37,43.74v484a50.15,50.15,0,0,1-50,50h-3740a50.15,50.15,0,0,1-50-50Z" transform="translate(-5279.5 -6119.5)"/></g></g><g id="Laag_8" data-name="Laag 8"><g id="Laag_9" data-name="Laag 9"><path class="cls-6" d="M6455.42,7929.21c-3.51,0-7.62-.82-9.13-1.82a4.86,4.86,0,0,1-1.82-5,4.58,4.58,0,0,1,4.1-3.2,49.68,49.68,0,0,0,10.5-2.28c4-1.25,9.15-3.92,11.41-5.93s2.05-4.47-.46-5.48-9.06-1.82-14.56-1.82h-19.21c-3,0-3-3.77,0-8.38L6439,7891c3-4.61,4.44-8.38,3.19-8.38s-5.57,3.08-9.58,6.84h0c-4,3.77-10.17,6.64-13.69,6.39s-7.62-2.1-9.13-4.11-5.2-2.62-8.21-1.37-7.17,3-9.23,3.79-3.72,1.34-3.67,1.14.1-3.45.1-7.21,3.28-6,7.3-5,11.51.25,16.66-1.69l3.18-1.19c5.15-1.93,4.9-4.08-.55-4.78l-85.06-10.87c-5.45-.7-9.72-3.28-9.48-5.74s4.67-3,9.85-1.12l6.72,2.4c5.18,1.85,9,2.55,8.51,1.54a20.85,20.85,0,0,1-1.37-3.65c-.25-1,4-1.25,9.46-.55l8.46,1.1c5.45.7,12.17.66,14.93-.09a4.8,4.8,0,0,0,3.2-6.39c-1-2.76-5.73-5-10.5-5s-11.13-1.85-14.15-4.11-3-5.13,0-6.39a15.16,15.16,0,0,1,10.5,0c2.76,1.26,8.72,1.26,13.24,0a74.21,74.21,0,0,1,16.42-2.28c4.52,0,9-1,10-2.28a2.93,2.93,0,0,0-.45-4.11,59.2,59.2,0,0,0-6.39-4.11c-2.26-1.25-3.29-3.72-2.28-5.47s3.88-3.81,6.39-4.57,7.84-2.6,11.86-4.1,8.53-4.59,10-6.85-.55-4.72-4.56-5.47a50,50,0,0,0-15.06,0,166.53,166.53,0,0,1-16.89,1.82c-5,.25-5.49-2.19-1-5.42l3.91-2.84c4.45-3.24,6.85-6.71,5.35-7.71s-5.21-1.21-8.22-.46-9.32,3.71-14,6.57l-3.9,2.38a87.78,87.78,0,0,1-15.85,7.48c-4,1.26-6.89.64-6.39-1.37s-.93-3.44-3.19-3.19a48.75,48.75,0,0,0-6.13,1,4.62,4.62,0,0,1-4-1.35,12.14,12.14,0,0,1-2.54-3.77c-.34-1-.87-1.54-1.17-1.17s-1.78-.55-3.28-2.05-7.09-3.84-12.42-5.2l-9-2.3c-5.33-1.35-9.22-3.41-8.65-4.55s-.19-2.71-1.69-3.46a8.61,8.61,0,0,0-4-1.1c-.68.14-3-2.84-5.11-6.62s-3.09-7.27-2.15-7.74,3.05.65,4.66,2.51,5.39,3,8.4,2.45v-2.78c.27-2,1.44-3.63,2.59-3.68s3.06,2.52,4.23,5.7,3.91,6.74,6.09,7.91,5.1-.06,6.51-2.74,2.74-4.56,3-4.18,2.06.69,4.07.69,4.27-.83,5-1.83,0-5.57-1.66-10.15-.06-5.57,3.57-2.2,7.54,3.79,8.72.94-1.13-8.1-5.11-11.68-8-7.35-8.86-8.37.71-3.3,3.58-5.06,7.54-.44,10.39,2.9,2.91,2.19.16-2.57l-2.08-3.58c-2.75-4.76-6.21-8.84-7.68-9.06s-2.41-1-2.08-1.8,2-1,3.79-.48,5.45,4,8.22,7.76,5.63,5.82,6.38,4.56.76-5.36,0-9.13,2-3.81,6-.11l5.29,4.8c4.06,3.7,9,6.72,11.05,6.72a3.45,3.45,0,0,0,3.65-3.19c0-1.76-1.44-5-3.2-7.3s.09-3.7,4.11-3.2a71,71,0,0,1,15.06,4.11c4.27,1.76,9.4,2.37,11.41,1.37a4.55,4.55,0,0,0,1.82-5.93c-1-2.26-5.11-6-9.12-8.22s-8.74-4.72-10.5-5.48a6.91,6.91,0,0,1-3.65-5c-.25-2-3.54-3.66-7.3-3.66s-5.41-.82-3.65-1.82,2.57-3.67,1.82-5.93a4.42,4.42,0,0,1,3.2-5.48c2.51-.75,7.23-2,10.49-2.74s6.76-3,7.76-5-1.05-3.44-4.56-3.19a84.16,84.16,0,0,0-11.87,1.82,25.21,25.21,0,0,1-9.58.46c-2.26-.5-5.14-1.12-6.39-1.37s-1.26-2.51,0-5a44.15,44.15,0,0,0,3.19-9.13c.51-2.51-.93-3.33-3.19-1.82a64.52,64.52,0,0,0-8.21,6.84c-2.26,2.26-4.73,3.49-5.48,2.74a25.29,25.29,0,0,1-3.2-5c-1-2-3.05-2.83-4.56-1.82a25.39,25.39,0,0,0-5.48,5.93c-1.5,2.26-4,6.36-5.47,9.13a14.77,14.77,0,0,1-7.76,6.38,20.75,20.75,0,0,1-8.67.46c-2-.5-6.12.53-9.13,2.28s-2.66-.32.77-4.61l2.11-2.64c3.44-4.29,7.07-9.86,8.07-12.37s0-3.95-2.28-3.2-6.77,3.63-10,6.39-8.19,4.2-10.95,3.2-7.79-1-11.18,0a36.78,36.78,0,0,0-11.41,6.39c-2.89,2.51-7.3,1.69-9.81-1.83s-2.72-5.77-.46-5,6.68-.48,9.81-2.74,5.71-6.36,5.71-9.12a12.15,12.15,0,0,0-3.88-8.22,71.59,71.59,0,0,1-7.07-6.84,4.71,4.71,0,0,1,.91-6.85,4.82,4.82,0,0,1,7.07,1.37,22.64,22.64,0,0,0,7.76,6.85c2.64,1.25,7.26-.19,10.27-3.2l2.74-.91,2.74-.91a102.09,102.09,0,0,0,5.93-12.33c.75-2.25,3.42-1.84,5.93.92a28.63,28.63,0,0,0,10,6.84,17,17,0,0,0,10,0c2.51-1,4.15-2.85,3.65-4.1s-3.58-4.75-6.84-7.76-5.94-6.71-5.94-8.22,2.06-1.5,4.57,0,5,2.13,5.47,1.37a23.82,23.82,0,0,0,1.83-5.93c.5-2.51,5.11-2.95,10.24-1l5.07,1.94c5.13,2,9.74,2.77,10.24,1.77a19.26,19.26,0,0,0,1.37-4.11c.25-1.25-1.39-3.51-3.65-5s-5.34-3.76-6.84-5a10.64,10.64,0,0,1-3.2-4.11,9,9,0,0,1,0-3.65c.25-1,4-4.65,8.23-8.11l3.62-2.94a103.53,103.53,0,0,0,10.06-9c1.25-1.5-1.42-2.53-5.94-2.28s-12.16,2.61-17,5.25l-2.52,1.37c-4.83,2.64-9,1.5-9.24-2.51s-2.92-5-5.93-2.28-6.3,3.37-7.3,1.37-5.52-3.65-10-3.65a107.61,107.61,0,0,0-18,2l-2.33.49c-5.38,1.12-12.87,3.07-16.63,4.32s-7.47.84-8.22-.91,2.71-5.1,7.69-7.43l9.26-4.32c5-2.32,5.37-6.28.85-8.79s-6-5.38-3.2-6.39,5.23-3,5.48-4.56-3.44-2.33-8.21-1.83-7.44-.73-5.94-2.73,1.92-4.27.92-5a7.88,7.88,0,0,1-2.28-4.57c-.26-1.75,1.49-4.22,3.87-5.47s6.5,1.21,9.13,5.47,6.44,6.73,8.44,5.48,3.65,1.62,3.65,6.39,1,8.67,2.29,8.67,3.1-2.88,4.1-6.39,5.73-5.36,10.5-4.11,9.9,1.67,11.41.91,1.5-3.21,0-5.47-1.51-5.55,0-7.3,1.92-6.48.91-10.5,1.69-4.49,6-1.05l2.64,2.11c4.3,3.43,9,4.19,10.55,1.68l1.82.91c1.83.91-4.13-5.47-4.13-5.47-3.75-4-2.92-5.66,1.85-3.66s10.52,3,12.78,2.29a5.25,5.25,0,0,0,3.19-5.94c-.5-2.51,2.58-4.56,6.85-4.56s7.14-1.64,6.39-3.65-5.81-4.39-11.23-5.3l-2.18-.36c-5.43-.9-10.28-2.67-10.78-3.92s-5.3-1.29-10.67-.08l-8.78,2c-5.37,1.21-9.76.15-9.76-2.36s-3.74-2.07-8.32,1c0,0-13.58,9.06-13.58,7.23s10.82-11.56,10.82-11.56c4.09-3.68,6.61-7.92,5.61-9.43s-6.13-1.43-11.39.18l-1.86.56c-5.26,1.6-10,1.89-10.48.63s-4.82-.64-9.59,1.37-9.9,2.62-11.4,1.37-3.36-5.36-4.11-9.13-5.8-6-11.21-5l-.4.07c-5.41,1-9.84.35-9.84-1.41a52.35,52.35,0,0,1,1.39-9.12c.76-3.27,4.87-5.94,9.12-5.94s4.87-2.87,1.36-6.39-5.57-8.44-4.57-11,5.93-3.54,10.95-2.28a90,90,0,0,1,16.89,6.39c4.27,2.26,8.17,3.08,8.67,1.82s5-.49,10.09,1.7l2.71,1.17c5.05,2.19,9.18,2.54,9.18.79s-3.67-5.81-8.15-9l-9.34-6.65c-4.48-3.19-3.78-6.9,1.56-8.23l2.5-.62c5.34-1.34,8.47-3.25,7-4.26s-7.24-1.82-12.74-1.82h-1c-5.5,0-12.06-2.46-14.57-5.48a23.59,23.59,0,0,0-11.86-6.84c-4-.76-6.48-2.6-5.48-4.11s5.73-2.94,10.5-3.19,11.34,2.21,14.6,5.47,7.16,4.91,8.67,3.65a11.66,11.66,0,0,1,6.39-2.28c2,0,2-2.26,0-5s-.37-3.38,3.65-1.37l4.56-1.82,4.57-1.83c-.5-1.5-4.51-5.44-8.91-8.74,0,0-3-2.21-3.87-4s4-5.68,4-5.68c4.33-3.4,4-6.39-.81-6.64s-8.26-3.33-7.75-6.84-1.14-2.9-3.65,1.37-6.21,5.29-8.22,2.28-6.1-1.71-9.1,2.91c0,0-6.41,9.87-7.33,8l-.91-1.83c-3.51-.5-9.26,1.56-12.78,4.57s-8,4.24-10,2.74-1.8-2.74.46-2.74,2.87-1.44,1.37-3.2a27.3,27.3,0,0,0-7.53-5.47,9.35,9.35,0,0,1-4.79-7.76c0-3,4.47-5,9.93-4.35l4.32.49c5.46.62,12.81,1.74,16.32,2.49s6-.48,5.48-2.74a24.42,24.42,0,0,0-3.65-7.76c-1.51-2-.48-4.88,2.28-6.38a15.08,15.08,0,0,0,6.39-8.68c.75-3.26-.69-5.72-3.2-5.47a48.48,48.48,0,0,0-8.67,1.82c-2.26.76-5.34.35-6.84-.91s-6,.59-10,4.11-7.51,4.74-7.76,2.74a9.62,9.62,0,0,0-4.11-5.94c-2-1.25-1.18-4.35,1.83-6.88s7.73-3.35,10.49-1.82,6.05,1.95,7.31.95a11.63,11.63,0,0,0,3.19-5c.5-1.76,3.17-3.2,5.93-3.2H6261c2,0,3.45-.61,3.2-1.37s-3.13-3-6.39-5-2.46-6.51,1.79-10l.07-.06c4.25-3.5,7.11-8,6.35-10a6.61,6.61,0,0,1,1.37-6.39c1.51-1.5,1.71-3.56.46-4.56s-6.39,0-11.41,2.27l-8.22,3.68c-5,2.25-8.51.19-7.75-4.58s-1.43-5.14-4.84-.83l-4.93,6.22c-3.41,4.32-7,6.2-8,4.19s.64-5.91,3.65-8.67,1.78-5-2.74-5-5.54-2.46-2.28-5.47,3.26-5.48,0-5.48-5.93-1-5.93-2.28,4.5-2.28,10-2.28h1c5.5,0,10-1,10-2.29s-3.08-4.33-6.85-6.84-2.61-6.1,2.56-8l1.28-.47c5.17-1.88,9.4-5.06,9.4-7.07s.82-3.65,1.82-3.65,3.68-1.44,5.94-3.19,4.1-4.43,4.1-5.93a3,3,0,0,0-3.19-2.74c-1.76,0-6.48,1.23-10.5,2.74s-7.3,1.71-7.3.45-2.46-2.69-5.47-3.19-5.48-2.76-5.48-5-.62-3.7-1.37-3.2-3.63,2.35-6.39,4.11-6.25,3.19-7.76,3.19-1.5-2.05,0-4.56a79.63,79.63,0,0,0,4.11-7.76,8.52,8.52,0,0,0,.46-5.47c-.5-1.26-2.56-2.29-4.57-2.29a30.19,30.19,0,0,1-6.84-.91c-1.76-.5.18-3.89,4.3-7.53l.52-.45c4.13-3.64,7.5-7.85,7.5-9.36s-.82-2.94-1.83-3.19a18.14,18.14,0,0,0-3.65-.46,42.87,42.87,0,0,0-8.21,2.28c-3.51,1.26-4.95.23-3.2-2.28s3-5.59,2.74-6.85a5,5,0,0,0-3.19-3.19c-1.51-.5.91-3.55,5.37-6.77l.21-.15c4.46-3.22,8.11-7.71,8.11-10s-2.26-3.28-5-2.28-8,4.47-11.66,7.69-6.91,4.39-7.23,2.59a25.46,25.46,0,0,1-.2-6.32c.21-1.68,2-4.48,4-6.24a48.21,48.21,0,0,0,7.3-9.13c2-3.26,4.47-10,5.48-15.06s.8-9.94-.46-11-3.51-.39-5,1.37-4.79,5.66-7.3,8.67-4.88,1-5.28-4.5l-2.22-31.16a92.56,92.56,0,0,0-3-17.28c-1.25-4-2.59-6.87-3-6.34a2,2,0,0,1-2.29.22c-.88-.39-2.34,1.62-3.24,4.49l-1.62,5.21h0l-.66,2.09a19.27,19.27,0,0,0-.71,2.86c0,.43-1.13,5.14-2.45,10.48L6159,7095c-1.32,5.34-2.94,9.06-3.6,8.27s-2.43-2.88-3.94-4.63-3.76-2.38-5-1.37-1.46,5.93-.45,10.95,2.73,10.6,3.84,12.41,1.31,6.11.46,9.58-3.82,5.48-6.59,4.48-5,0-5,2.28,2.25,5.73,5,7.71a13.28,13.28,0,0,1,5,9.54c0,3.26-1.42,11.42-3.15,10.8a19.31,19.31,0,0,0-5-1.12,18.22,18.22,0,0,0-3.65.45c-1,.25-1.83,1.69-1.83,3.2s3.13,5.49,6.95,8.86,7,6.55,7,7.06-.95,1.22-2.33,1.61a27.21,27.21,0,0,1-6.16.72c-2,0-4.06,1-4.56,2.28a8.47,8.47,0,0,0,.45,5.48,81.89,81.89,0,0,0,4.11,7.76c1.51,2.51,1.51,4.56,0,4.56s-5-1.44-7.76-3.19-5.63-3.61-6.39-4.11-1.37.93-1.37,3.19-2.46,4.52-5.47,5-5.48,1.94-5.48,3.2-3.28,1.05-7.3-.46-8.74-2.74-10.5-2.74a3,3,0,0,0-3.19,2.74c0,1.51,1.85,4.18,4.11,5.93s4.93,3.2,5.93,3.2,1.82,1.64,1.82,3.65,4.23,5.19,9.4,7.07l1.29.46c5.17,1.88,6.31,5.48,2.55,8s-6.85,5.59-6.85,6.84,4.5,2.28,10,2.28h1c5.5,0,10,1,10,2.28s-2.67,2.29-5.94,2.29-3.37,2.36-.25,5.24a64.23,64.23,0,0,1,5.58,5.48,73.35,73.35,0,0,1-8,.23c-4.32,0-5.39,2.26-2.38,5s4.66,6.66,3.65,8.67-4.61.12-8-4.19l-4.93-6.22c-3.41-4.32-5.59-3.94-4.83.83s-2.74,6.83-7.76,4.58l-8.22-3.69c-5-2.25-10.15-3.27-11.4-2.26s-1,3.05.45,4.56a6.58,6.58,0,0,1,1.37,6.39c-.75,2,2.11,6.51,6.35,10l.08.06c4.24,3.5,5.05,8,1.79,10s-6.14,4.27-6.39,5,1.18,1.37,3.19,1.37h8.67c2.76,0,5.43,1.44,5.93,3.19a11.53,11.53,0,0,0,3.2,5c1.25,1,4.54.58,7.3-1s7.48-.7,10.5,1.83,3.83,5.63,1.82,6.88a9.64,9.64,0,0,0-4.11,5.93c-.25,2-3.74.78-7.75-2.74s-8.54-5.36-10-4.1-4.59,1.66-6.85.91a49.38,49.38,0,0,0-8.67-1.83c-2.51-.25-3.95,2.22-3.19,5.48a15,15,0,0,0,6.39,8.67c2.76,1.51,3.78,4.38,2.28,6.39a24.21,24.21,0,0,0-3.65,7.76c-.51,2.26,2,3.49,5.47,2.74s10.37-1.82,15.23-2.37,9.08.63,9.39,2.63a14,14,0,0,0,2.17,5.63c.89,1.09-.05,2.78-2.09,3.75a23.23,23.23,0,0,0-6.44,5c-1.51,1.76-.89,3.19,1.37,3.19s2.46,1.24.45,2.74-6.52.28-10-2.74-9.26-5.06-12.78-4.56l-.91,1.83c-.91,1.82-7.33-8.05-7.33-8.05-3-4.61-7.09-5.92-9.1-2.91s-5.7,2-8.21-2.28-4.15-4.88-3.65-1.37-3,6.6-7.76,6.85-5.13,3.24-.81,6.63c0,0,4.92,3.86,4,5.69s-3.86,4-3.86,4c-4.4,3.3-8.41,7.23-8.91,8.74l4.56,1.82,4.56,1.83c4-2,5.66-1.39,3.65,1.37s-2,5,0,5a11.55,11.55,0,0,1,6.39,2.28c1.51,1.25,5.41-.39,8.67-3.65s9.84-5.73,14.61-5.48,9.49,1.69,10.49,3.2-1.46,3.35-5.47,4.1a23.66,23.66,0,0,0-11.87,6.85c-2.51,3-9.06,5.48-14.56,5.48h-1c-5.5,0-11.24.82-12.74,1.82s1.63,2.92,7,4.25l2.5.63c5.34,1.33,6,5,1.56,8.22l-9.34,6.66c-4.48,3.19-8.15,7.23-8.15,9s4.13,1.41,9.18-.78l2.72-1.18c5-2.18,9.58-2.94,10.08-1.69s3,1.19,5.49-.14,6.74-.35,9.39,2.18a22.61,22.61,0,0,1,5.74,11.45c.5,3.76-2.76,9.45-7.24,12.65l-7.06,5c-4.48,3.19-8.55,6.83-9.05,8.09s-5.22,1-10.48-.63l-1.86-.57c-5.26-1.6-10.39-1.68-11.39-.17s1.51,5.75,5.6,9.43c0,0,10.82,9.73,10.82,11.56s-13.58-7.23-13.58-7.23c-4.58-3.05-8.32-3.49-8.32-1s-4.39,3.57-9.76,2.36l-8.78-2c-5.37-1.21-10.17-1.17-10.67.08s-5.35,3-10.77,3.93l-2.18.36c-5.43.9-10.48,3.29-11.23,5.3s2.12,3.65,6.38,3.65,7.35,2,6.85,4.56a5.25,5.25,0,0,0,3.19,5.93c2.26.76,8-.27,12.78-2.28s5.6-.36,1.85,3.66c0,0-5.95,6.38-4.13,5.47l1.83-.91c1.5,2.51,6.25,1.75,10.54-1.69l2.64-2.11c4.29-3.43,7-3,6,1.06s-.59,8.74.92,10.49,1.5,5.05,0,7.3-1.51,4.73,0,5.48,6.64.34,11.4-.91,9.5.59,10.5,4.11,2.85,6.38,4.11,6.38,2.28-3.9,2.28-8.67,1.64-7.64,3.65-6.39,5.79-1.18,8.42-5.43,6-6.13,7.56-4.21,1.86,6.44.71,10-4.14,6.3-6.65,6-4.36.75-4.11,2.26a5.71,5.71,0,0,0,3.48,3.83c1.67.61,2.71,2.11,2.31,3.34a5.87,5.87,0,0,1-1.48,2.65c-.42.24-2.58-.55-4.8-1.75l-1.26-1.89c-1.82-2.74-5.47-.21-5.47-.21-4.52,3.13-6.16,8.15-3.65,11.16a45,45,0,0,1,5.68,8.29c.62,1.54-1.76,2.2-5.28,1.47a86.94,86.94,0,0,0-14.63-1.34c-4.51,0-9,1.64-10,3.65s-4.29,1.39-7.3-1.37-5.68-1.73-5.93,2.29-4.41,5.14-9.24,2.51l-2.52-1.38c-4.83-2.63-12.47-5-17-5.24s-7.19.77-5.93,2.28a103.1,103.1,0,0,0,10,9l3.62,2.93c4.28,3.46,8,7.12,8.23,8.12a9,9,0,0,1,0,3.65,10.84,10.84,0,0,1-3.19,4.11c-1.51,1.25-4.59,3.51-6.85,5s-3.9,3.76-3.65,5a19.74,19.74,0,0,0,1.37,4.1c.5,1,5.11.21,10.25-1.76l5.06-1.95c5.13-2,9.74-1.53,10.25,1a23.91,23.91,0,0,0,1.82,5.93c.5.75,3,.14,5.48-1.37s4.56-1.51,4.56,0-2.67,5.2-5.93,8.21-6.35,6.51-6.85,7.76,1.14,3.11,3.65,4.11a17.15,17.15,0,0,0,10,0,28.57,28.57,0,0,0,10-6.85c2.51-2.76,5.18-3.17,5.94-.91s1.45,4.26,1.55,4.45a23.77,23.77,0,0,1-.35,6.77c-.62,3,2.17,8.53,6.2,12.27l10.9,10.12c4,3.74,6.07,7.45,4.53,8.23a9,9,0,0,1-5.75.56c-1.61-.48-5.2-.05-8,.95s-7.69-.43-10.95-3.19-7.78-5.64-10-6.39-3.28.69-2.28,3.2a56.6,56.6,0,0,0,7,11c2.85,3.56,4.6,6.77,3.89,7.14a4.24,4.24,0,0,1-3.36-.55c-1.13-.66-3.71-.79-5.72-.29a20.92,20.92,0,0,1-8.67-.46,14.73,14.73,0,0,1-7.75-6.39c-1.51-2.76-4-6.87-5.48-9.13a25.8,25.8,0,0,0-5.48-5.93c-1.5-1-3.56-.18-4.56,1.83a25.18,25.18,0,0,1-3.19,5c-.76.75-3.22-.48-5.48-2.74a66.27,66.27,0,0,0-8.22-6.85c-2.25-1.5-3.69-.68-3.19,1.83a44.15,44.15,0,0,0,3.19,9.13c1.26,2.51,1.26,4.77,0,5s-4.13.86-6.38,1.37-5.89-.73-8.07-2.73-6.83-3.84-10.34-4.09-5.57,1.18-4.56,3.19,4.49,4.27,7.75,5,7.31,3,9,5a9.08,9.08,0,0,1,1.67,7.74c-.75,2.26.07,4.93,1.83,5.94s1.39,2.32-.82,2.92a11.66,11.66,0,0,0-6,4.23,6.91,6.91,0,0,1-5.41,3c-1.91,0-7.24.21-11.83.58s-9.87,2-11.73,3.63a4.56,4.56,0,0,0-.83,6.15c1.41,1.76,6.32,3.35,10.94,3.54s12.57.2,17.69,0,7.88,1.5,6.12,3.76-3.19,5.55-3.19,7.3a3.46,3.46,0,0,0,3.65,3.2c2,0,7-3,11.05-6.73l5.28-4.8c4.07-3.7,6.78-3.64,6,.12s-.75,7.87,0,9.13,3.63-.8,6.39-4.57,5.7-7,6.54-7.28-.72,3.48-3.44,8.26l-3,5.24c-2.72,4.78-2.63,5.95.22,2.61s7.63-4.58,10.64-2.74,5.47,3.35,5.47,3.36l-7.45,6.7-3.36,3c-4.09,3.68-6.47,9-5.3,11.87s5.21,2.31,9-1.18,5.36-2.3,3.56,2.66-2.66,9.83-1.91,10.84,3,1.82,5,1.82,3.9-.4,4.21-.9,1.64,1.19,3,3.73,4.2,3.67,6.37,2.5,4.92-4.73,6.09-7.91,3-5.75,4.16-5.71,2.32,2,2.66,4.41v3c3,.5,6.92-.75,8.68-2.78s3.86-3.36,4.66-3-.4,4-2.66,8-4.55,7.19-5.11,7.07a8.8,8.8,0,0,0-3.74,1.16c-1.51.75-2.36,2.12-1.9,3.05s-3.52,2.79-8.85,4.15l-8.59,2.19c-5.33,1.36-11,3.79-12.63,5.41s-3.09,2.74-3.28,2.51-.52.09-.74.73a15.17,15.17,0,0,1-2.89,3.67c-1.39,1.38-3.26,2.3-4.18,2s-1.74-.49-1.82-.5-2.88-3.59-6.21-8l-3.52-4.61c-3.33-4.37-7.71-5.34-9.72-2.17s-5.61,6.71-8,7.85-6.61.69-9.37-1a45.45,45.45,0,0,0-10.49-4.42c-3-.75-6.71-.55-8.21.45s.35,4.08,4.13,6.83,6.35,5.18,5.72,5.4a3.9,3.9,0,0,0-1.83,2.05c-.37.91-2.54,1.56-4.81,1.45s-7.62-.83-11.88-1.58a50.67,50.67,0,0,0-15.06,0c-4,.75-6.07,3.22-4.57,5.48s3.33,4.33,4.05,4.59.89,1.2.39,2.06-2.42,1.43-4.26,1.26-4.17-4.28-5.17-9.13-3.61-5.81-5.78-2.13-5.19,9.3-6.7,12.48a118.36,118.36,0,0,1-7.22,12.47c-2.47,3.68-3.46,11-2.21,16.28s3.93,11.63,5.94,14.14a144.29,144.29,0,0,0,10.91,11.44l2.82,2.68a59.28,59.28,0,0,0,16.62,10.39l3.18,1.19c5.15,1.93,12.65,2.69,16.67,1.68s7.3,1.26,7.3,5,.1,7.24.22,7.72-1.52.17-3.66-.68-6.35-2.59-9.37-3.84-6.7-.64-8.21,1.37-5.61,3.85-9.13,4.1-9.67-2.62-13.68-6.38h0c-4-3.76-8.33-6.84-9.58-6.84s.17,3.77,3.18,8.38l2.76,4.24c3,4.6,3,8.37,0,8.37h-19.21c-5.5,0-12.05.82-14.56,1.83s-2.71,3.47-.46,5.47,7.4,4.68,11.41,5.94,8.74,2.28,10.5,2.28a4.6,4.6,0,0,1,4.11,3.19,4.83,4.83,0,0,1-1.83,5c-1.51,1-5.61,1.83-9.13,1.83s-8.23,1-10.49,2.28-3.49,3.92-2.74,5.93,4,3.24,7.3,2.74,8.81-1.32,12.32-1.82a39.27,39.27,0,0,0,11.87-4.11c3-1.76,6.5-2.58,7.76-1.83s1.46,3,.45,5v7.3c1.51,1.51,5,.89,7.76-1.36s5.64-2.26,6.39,0,3.42,3.08,5.93,1.82,8.47-3.92,13.24-5.93,10.52-3.45,12.77-3.2,1.85,2.92-.91,5.94-6.66,5.47-8.67,5.47a4.91,4.91,0,0,0-4.56,3c-.5,1.63,1.34,3,4.1,3s4.61,2.47,4.11,5.48a17.29,17.29,0,0,1-5.47,9.13c-2.51,2-2.51,3.65,0,3.65s6.2-1.85,8.21-4.11,5.5-4.31,7.76-4.56a16.36,16.36,0,0,1,7.76,1.37v3.65c0,2,4.41,4.53,9.8,5.61,0,0,3.89.78,3.89-2a9.11,9.11,0,0,1,.68-4c2.64-4.83,6.44-7.75,8.44-6.5a19.85,19.85,0,0,1,5.94,7c1.25,2.59,4.54,1.77,7.3-1.83s6.87-6.95,9.12-7.45a18.64,18.64,0,0,0,6.39-2.74c1.26-1,2.49-4.7,2.74-8.21a39.65,39.65,0,0,1,.72-6.41c.14,0,2.73,3.74,5.75,8.33l0,0c3,4.6,5.57,9.12,5.66,10.05s.5,1.53.9,1.36,1.23.44,1.84,1.37,5.19-.21,10.18-2.53l9-4.21c5-2.32,9.93-4.14,11-4.05s2.94,2.41,4.2,5.18,6.18,6,11,7.3,12.45-.16,17.07-3.14l6.45-4.16c4.62-3,9.13-3.79,10-1.8s6,4.58,11.39,5.76l9.67,2.11a10.8,10.8,0,0,0,12.51-7.44c1.51-5.27,5.26-10.11,8.34-10.75a36.86,36.86,0,0,1,12.31.23c3.69.77,7.94,5.7,9.44,11a10.82,10.82,0,0,0,12.51,7.45l9.67-2.12c5.37-1.17,10.57-3.92,11.55-6.11s5.56-1.53,10.18,1.45l6.13,3.95c4.62,3,12.3,4.4,17.07,3.14s9.7-4.54,11-7.3,2.76-5.06,3.36-5.11,5.16,1.81,10.15,4.13l10.71,5c5,2.32,9.67,3.29,10.41,2.17s1.56-1.95,1.84-1.83.54-.29.61-.92,2.58-4.91,5.6-9.51l.66-1c3-4.59,5.7-5.5,5.94-2s1.49,7.17,2.74,8.18a18.92,18.92,0,0,0,6.39,2.73c2.26.51,6.37,3.86,9.13,7.46s6,4.42,7.3,1.82a19.6,19.6,0,0,1,5.93-7c2-1.26,5.81,1.67,8.44,6.49a9,9,0,0,1,.69,4c0,2.74,3.88,2,3.88,2,5.4-1.07,9.81-3.6,9.81-5.61v-3.65a16.48,16.48,0,0,1,7.76-1.37c2.26.25,5.75,2.31,7.75,4.57s5.71,4.1,8.22,4.1,2.51-1.64,0-3.65a17.27,17.27,0,0,1-5.48-9.13c-.5-3,1.35-5.47,4.11-5.47s4.61-1.34,4.11-3a4.93,4.93,0,0,0-4.57-3c-2,0-5.91-2.47-8.67-5.48s-3.17-5.68-.91-5.93,8,1.18,12.78,3.19,10.72,4.68,13.23,5.93,5.18.44,5.93-1.82,3.63-2.26,6.39,0,6.26,2.87,7.76,1.37v-7.3c-1-2-.8-4.27.46-5s4.74.06,7.76,1.82a39,39,0,0,0,11.86,4.11c3.52.5,9.06,1.32,12.32,1.82s6.55-.73,7.3-2.73-.47-4.68-2.73-5.94S6458.93,7929.21,6455.42,7929.21Zm-135-126.24a1.13,1.13,0,0,1-1.9-.17,6.5,6.5,0,0,1-.91-1.72c0-.2.86-.12,1.9.17S6321,7802.31,6320.41,7803Zm-47-29.83a2.55,2.55,0,0,1-1.94-.76c-.26-.42.39-.42,1.46,0S6274.17,7773.14,6273.37,7773.14Zm61.66,23.6c.09,0,.1.08,0,.09a.11.11,0,0,1-.15-.06C6334.89,7796.72,6335,7796.71,6335,7796.74Zm-12.86-5.05c3.13,1.23,5.06,3,4.28,4s-3.08,1.4-5.13,1-3.72-1.91-3.72-3.43a6.74,6.74,0,0,0-.56-3.27C6316.72,7789.69,6319,7790.47,6322.17,7791.69Zm-25.45-10c.77.3.64.55-.27.55s-1.54-.25-1.39-.55S6296,7781.42,6296.72,7781.72Zm-354.18,32.11a.21.21,0,0,1-.27-.08c0-.09.06-.12.21-.08S5942.65,7813.79,5942.54,7813.83Z" transform="translate(-5279.5 -6119.5)"/></g><g id="Laag_10" data-name="Laag 10"><path class="cls-6" d="M8790.35,7793.86a62.92,62.92,0,0,0,13.27-7.3,10.93,10.93,0,0,0,3.46-10.77c-1.06-3.59-5-8.7-8.85-11.34a59.7,59.7,0,0,0-16.63-7.19l-2.49-.62a11.5,11.5,0,0,1-8.45-12.3l1.7-13.23c.69-5.46-1.94-8-5.85-5.69s-8.41,6.91-10,10.19-6.6,3.42-11.14.33l-.4-.27a98.35,98.35,0,0,0-16.14-8.71c-4.34-1.7-12-1.44-17.11.57s-10.88,6.51-12.89,10-7.46,5.48-12.11,4.42-10.71-.71-13.46.77-5.51,5.81-6.15,9.62-1.93,10.55-2.88,15-4.94,8.94-8.85,10-11.59,1.51-17.07,1l-9.69-.88a154.09,154.09,0,0,1-19.66-3.36l-18.67-4.71c-5.33-1.35-14-3.74-19.28-5.31l-6.6-2a66.89,66.89,0,0,1-17.56-8.89l-1.35-1c-4.38-3.31-7.46-8.8-6.82-12.18s4.44-3.38,8.46,0,11.78,5.71,17.26,5.17l3.55-.35c5.47-.53,8.57-4.26,6.87-8.28s1.43-7.31,6.93-7.31H8596c5.5,0,9.05-1.12,7.89-2.5s-.3-3.79,1.92-5.38,8.52-2.49,14-2l15.07,1.33c5.48.48,9.7-1.38,9.38-4.13s2.11-3.09,5.38-.76,8.13,3.79,10.77,3.26,4.2-2.26,3.46-3.84a49.85,49.85,0,0,0-5.77-8.08c-2.43-2.85.08-5.19,5.58-5.19h11.15c5.5,0,12.16-.78,14.81-1.73s2.73-3.46.19-5.57-9-3.09-14.47-2.15l-4.9.84c-5.42.93-9.77-.21-9.66-2.54s2.52-4.23,5.38-4.23,9.51-1.27,14.78-2.82l.43-.12c5.27-1.56,12.27-3.43,15.55-4.17a11.06,11.06,0,0,0,7.5-7.31c.85-3.28-.19-6.82-2.31-7.88s-7.92,0-12.91,2.29l-3.4,1.57a45.64,45.64,0,0,1-19,3.48l-6.2-.46c-5.49-.4-13.61-.73-18-.73s-10.8-1.56-14.13-3.46-10.34-2.09-15.58-.42l-8.06,2.57c-5.24,1.67-11.47,1.48-13.85-.42s-6.66-1.12-9.52,1.73-8.56,4.67-12.69,4a135.64,135.64,0,0,0-17-1.15c-5.24,0-11.84-3.86-14.66-8.58l-10.48-17.46c-2.83-4.71-6.14-4.18-7.35,1.18l-2.51,11.06c-1.21,5.37-6.23,9-11.15,8a143,143,0,0,1-18.32-5.19l-3.15-1.16a95.3,95.3,0,0,1-17.62-9.14l-.26-.18c-4.53-3.12-3.83-6.61,1.55-7.75l7.55-1.61c5.38-1.14,12.11-3.9,15-6.12s7.79-2.22,11,0,8.1,2.87,11,1.44,8.17-3.76,11.82-5.19,6.5-4.54,6.35-6.92,4-3.12,9.34-1.65l11.88,3.3c5.3,1.47,8.18-1.58,6.4-6.79l-1-3c-1.78-5.2,1-7.81,6.07-5.79l22.34,8.81c5.12,2,11.9.16,15.08-4.12s6.41-6,7.21-3.75,5.94,4,11.44,4h.76a7.9,7.9,0,0,0,8-9.81l-.11-.57c-1.08-5.39,1.67-7.15,6.11-3.91l5.19,3.78c4.44,3.24,9.24,4.34,10.67,2.44s6.23-3.47,10.67-3.47,8.85-1.42,9.81-3.17a7.14,7.14,0,0,1,5.76-3.17h13c4.92,0,7.39-2.34,5.48-5.19s-7.22-6.36-11.82-7.79-10-3.89-12.11-5.48-.38-3.92,3.74-5.19a72.29,72.29,0,0,1,17.5-2.31h.77c5.5,0,11.29-2.2,12.88-4.9s-1.53-5.77-6.93-6.82l-9.79-1.92c-5.4-1.06-14.28-2.48-19.74-3.15l-26.87-3.32c-5.46-.68-14.42-1.42-19.91-1.66l-100.57-4.33c-5.49-.23-14.49-.43-20-.43h-6c-5.5,0-10.77-2.46-11.73-5.48s1.78-5.48,6.06-5.48a100.17,100.17,0,0,0,17.55-2.14l4.12-.9c5.37-1.18,12.1-4.74,15-7.92s3.63-5.76,1.73-5.76H8506a86,86,0,0,1-16.92-1.73c-3.81-1-11.3-2.77-16.66-4l-14.57-3.46a133.3,133.3,0,0,1-18.88-6.33l-5.34-2.34c-5-2.21-9.54-6.36-10-9.21s3.62-4.87,9.11-4.46l3.7.27c5.49.4,11.79-.83,14-2.73s5.69.72,7.7,5.84l.17.43c2,5.11,6,8.52,8.86,7.57v-1.73a10.86,10.86,0,0,1,.58-3.31c1.9-5.16,6.57-6.14,10.39-2.17l.55.58c3.82,4,8.75,5,11,2.3s5.73-5,7.79-5.19,4.27,3.87,4.9,8.94,5.66,9.23,11.16,9.23h8.26c5.5,0,14.48-.41,20-.9,0,0,2.73-.25,1.57-4.87l-1.15-4.61c4.12-1.9,8.54-1,9.81,2s5.29,5.48,8.94,5.48,6.5-1.56,6.34-3.46a5.35,5.35,0,0,1,3.46-4.91c2.06-.79,8.25-1.44,13.75-1.44h19.13c4,0,7.47-2.07,7.78-4.61s4.73-4.62,9.81-4.62,6.24-3.24,2.6-7.21-2.21-8,3.21-8.94l9.72-1.72c5.42-1,12.7-3.3,16.19-5.2s6.35-5.54,6.35-8.07-4.5-4.62-10-4.62h-16.34c-5.5,0-12.34-1.43-15.19-3.17s-5.19-5.25-5.19-7.79-4.47-5.12-9.94-5.75l-15.31-1.76c-5.47-.63-14.22-1.14-19.45-1.14a145,145,0,0,1-19.39-1.61l-5.06-.82a112.8,112.8,0,0,1-18.24-4.78c-4.59-1.74-12.41-5.14-17.35-7.55l-3.36-1.63c-4.94-2.4-12.75-5.67-17.35-7.26s-6.42-5.22-4-8.07a34.34,34.34,0,0,0,5.77-10.38c.79-2.86-2.19-5.07-6.64-4.91s-12.12,2.25-17.07,4.65l-1,.51a69.51,69.51,0,0,1-18.93,5.46l-.89.1c-5.47.61-12.89-2.29-16.51-6.43,0,0-9-10.34-7.27-10.92s20.48,5.55,20.48,5.55c5.23,1.71,13.34,1.93,18,.51s9.74-4.08,11.25-5.9,7.2-3.88,12.65-4.59l.36-.05c5.45-.71,12.88,2.1,16.5,6.24l7,8c3.62,4.14,10.34,8.43,14.94,9.54s9.28.2,10.39-2,4.87-3.13,8.36-2,6.47-1.49,6.63-5.77,3.41-7.79,7.21-7.79a8,8,0,0,0,7.79-6.63c.47-3.65,5.23-5.54,10.57-4.21l3.66.92c5.34,1.33,11.78,1.38,14.32.12a5.46,5.46,0,0,0,2.31-7.21c-1.27-2.7.93-6.08,4.9-7.5s10.06-3.9,13.55-5.48,7.52-4.18,8.94-5.77-1.42-3.27-6.34-3.75a52.6,52.6,0,0,0-16.73,1.44c-4.28,1.27-8.56.62-9.51-1.44a59,59,0,0,0-5.19-8.36c-1.91-2.54-6.32-2.41-9.81.29a106,106,0,0,1-13,8.36c-3.65,1.9-11.13,3.46-16.63,3.46H8540a88,88,0,0,1-19.64-2.68l-1.49-.41c-5.3-1.47-11.19-3.72-13.1-5s-3.59-3.34-3.75-4.61,4.21-2.31,9.71-2.31h4.81c5.5,0,11.29-1.42,12.88-3.17s1.85-5.77.58-8.94-.36-4.73,2-3.46a73,73,0,0,0,11.24,4.33c3.81,1.11,9,.46,11.54-1.45s5-5.4,5.48-7.78,5.36-4.33,10.86-4.33h.77c5.5,0,9.74-2.2,9.42-4.9a23.42,23.42,0,0,1,1.44-9.81c1.11-2.69,6.07-6.87,11-9.27l2.19-1.07c4.95-2.4,7-5.27,4.67-6.38s-6.79-2.93-9.8-4a19.42,19.42,0,0,0-11.25,0c-3.17,1.11-10.18,2-15.57,2a9.69,9.69,0,0,1-9.81-9.52c0-5.23-3.74-7-8.32-4l-2.39,1.6a65,65,0,0,1-16.11,7.56,85.08,85.08,0,0,1-17.59,2,179.91,179.91,0,0,1-19.72-1.33L8480,7264a188.62,188.62,0,0,1-19.56-3.94l-25.68-6.91c-5.31-1.43-10.18-6-10.81-10.1s3-5.71,8-3.53l7,3c5,2.18,11.39,2.54,14.09.79a102.49,102.49,0,0,1,9.8-5.48,32.43,32.43,0,0,0,8.37-6.05c1.9-2.07,5.66-5.83,8.36-8.37s7-7.06,9.52-10a63,63,0,0,1,10.67-9.52c3.33-2.25,9.73-1.5,14.23,1.67,0,0,7.4,5.2,9.13,1.74l1.73-3.46c0-3.81,4.46-7.49,9.92-8.19l2.65-.34c5.46-.7,10-2.7,10.21-4.45s4.79-3.17,10.29-3.17H8561c5.5,0,10.26-1.69,10.58-3.75a15.51,15.51,0,0,0-1.45-7.78c-1.11-2.23,2.47-4.42,7.95-4.87,0,0,10.8-.9,12.53-2.06a19.74,19.74,0,0,1,5.22-1.91c5.38-1.17,10.81-4.46,12.08-7.31s-.15-5.33-3.17-5.48a92.37,92.37,0,0,0-15.34,1.35l-11.42,1.9c-5.43.91-12.33,1-15.34.21s-5-4.56-4.33-8.37-.79-6.53-3.17-6.05-8.31,3-13.17,5.54l-1.93,1c-4.86,2.57-11.43,5.71-14.61,7a10.44,10.44,0,0,1-10.09-1.73,7.93,7.93,0,0,1-1.73-8.94,58.75,58.75,0,0,1,8.65-11c3.33-3.33,2.81-6.57-1.15-7.21s-8.9-2.19-11-3.46-8.19-1.55-13.61-.62l-.47.09c-5.42.92-11.93,3.5-14.47,5.72s-7.73,3-11.54,1.73-8.74.68-11,4.33-6.24,7.8-8.94,9.23-9.4,2.59-14.9,2.59h-9.42a143.68,143.68,0,0,1-19.86-1.67l-17.77-3a68.44,68.44,0,0,1-18.51-6.57,123.68,123.68,0,0,0-18.14-8.07l-5.25-1.75c-5.22-1.74-11.13-4.28-13.14-5.66s-3.09-6.15-2.4-10.63,1.69-8,2.21-7.89a94.77,94.77,0,0,1,9,6.19s2.91,2.14,3.49,3.87l.57,1.73c4.13,2.54,11.39,3.58,16.15,2.31h1.73a8,8,0,0,1,3.37.91c4.81,2.67,12.38,6.67,16.82,8.89s9.24,2.22,10.67,0a10.24,10.24,0,0,1,6.92-4.32c2.38-.16,6.4,2.3,8.94,5.48s8.12,6.67,12.4,7.78,10.13.59,13-1.15a88.07,88.07,0,0,0,10.38-7.79,20.33,20.33,0,0,1,11.54-4.61,26.14,26.14,0,0,0,11.53-3.17c2.86-1.75,7.53-4.73,10.39-6.64s8.69-2.55,13-1.44,7.66-1.23,7.5-5.19,4.17-6.57,9.61-5.8l.39.06c5.45.78,10-.92,10.19-3.78s4.69-6.14,10.06-7.3l1.8-.39c5.37-1.16,7.82-4.06,5.44-6.44s-1.73-5.49,1.45-6.92,5.5-4.15,5.19-6.06a10.12,10.12,0,0,0-3.18-5.48c-1.42-1.11-6.09-1.11-10.38,0a86.09,86.09,0,0,1-17.78,2h-1.92c-5.5,0-10.26-1.68-10.58-3.75a21.61,21.61,0,0,0-2.59-6.92c-1.11-1.74-4.62-1-7.79,1.73s-10.19,5.72-15.6,6.72l-2.25.41a117.34,117.34,0,0,1-17.33,1.81c-4.13,0-5.3-3.89-2.6-8.65s2.83-8.91.29-9.23-8.77,1.11-13.84,3.17a179.34,179.34,0,0,0-17.9,8.74l-1.7,1a33.19,33.19,0,0,1-18.55,3.46l-6.19-1a80.07,80.07,0,0,1-18.88-5.9l-2.2-1.07c-4.94-2.4-13-6.41-17.9-8.91l-15-7.65c-4.91-2.5-9.2-4.89-9.54-5.31s-.76-4-.94-7.92-.16-6.84,0-6.44,4.71,1.91,10,3.36l3.79,1.05a79.9,79.9,0,0,0,17.14,2.65,24.8,24.8,0,0,1,13.27,4.61c3.17,2.54,7.19,3.19,8.94,1.44s7-.81,11.68,2.07l5.47,3.36c4.68,2.89,7.47,2.52,6.21-.81s.15-5.15,3.17-4l14.86,5.48,3.15,1.16c5.16,1.9,10.81,1.51,12.56-.87s-.07-5.63-4-7.21-11.53-4.16-16.8-5.71l-.43-.12c-5.27-1.55-10.11-6.2-10.74-10.32s2.44-4.8,6.84-1.5l2.46,1.84a42.92,42.92,0,0,0,17.94,7.05l2,.21a66.28,66.28,0,0,1,18.89,5.52l2.88,1.44c4.92,2.46,9.2,2.4,9.52-.14s2.39-7.21,4.61-10.38,0-7.86-4.82-10.41l-6.51-3.41c-4.87-2.55-5.48-5.68-1.36-6.95a19.34,19.34,0,0,1,14.07,1.86l15,9.51,4.56,2.89c4.65,2.94,11.3,3,14.79.16s4-7.53,1.16-10.38a52.56,52.56,0,0,0-12.69-8.65c-4.13-1.91-3.08-2.63,2.33-1.62l17.25,3.24a50.57,50.57,0,0,0,19.45-.91l13.07-3.73c5.29-1.51,10.65-5.61,11.92-9.1s-2.19-6.49-7.69-6.67l-14.61-.49a124.54,124.54,0,0,1-18.07-2.06c-4.45-1-8.08-5.63-8.08-10.39s-2.85-9.17-6.34-9.8-9.95,1.55-14.35,4.85l-16.3,12.22a56.84,56.84,0,0,1-17.74,8.27l-15.13,3.53a95.61,95.61,0,0,1-17.81,2.28c-4.44,0-4.61-2.87-.37-6.37l11.12-9.18c4.24-3.51,3.29-5.59-2.1-4.64a79,79,0,0,0-18.69,6.31l-18,9.29a49.07,49.07,0,0,1-18.89,4.59h-40.57a10.6,10.6,0,0,1-10.45-10l-.22-4.8c-.25-5.5,1.49-6.75,3.86-2.79s6.14,5.38,8.36,3.16,7.15-2.22,11,0,7.18-.38,7.5-5.77,4.91-8.59,10.2-7.11l9.58,2.68c5.3,1.48,7,.88,3.86-1.34s-5.76-7.67-5.76-12.11,3.79-5.66,8.43-2.71l8.51,5.41c4.64,3,10.25,2.52,12.47-1s6.63-6.35,9.81-6.35h30.37c5.5,0,8.7-2.59,7.12-5.76s-7.09-7.39-12.22-9.36l-11.33-4.36c-5.13-2-6.21-6.18-2.41-9.36s6.15-7.58,5.19-9.8,1.13-4.82,4.62-5.77a156.66,156.66,0,0,1,16.25-3.05s7.4-1,9.7-4.45l2.31-3.46a53,53,0,0,0-18-5.52l-5.46-.49c-5.48-.5-6.07-2.21-1.31-3.79a91.13,91.13,0,0,0,17.05-8.32l2.82-1.82c4.61-3,4.27-7.24-.77-9.45l-.13,0c-5-2.21-13-1.68-17.72,1.17l-26.73,16.17c-4.7,2.85-12.19,4.66-16.63,4s-11.45-1.42-15.57-1.73-9.06,3.05-11,7.49-7.45,10.16-12.33,12.69l-11.1,5.77c-4.88,2.54-12.13,4.62-16.11,4.62s-7.27-.58-7.3-1.29,1.93-4.61,4.36-8.66,8.34-9.56,13.14-12.24l11.39-6.38a138.91,138.91,0,0,0,12.47-7.77l7.5-5.77c2.06-1.59,7.43-5.48,11.92-8.65l3.27-2.31c4.49-3.17,6.09-7.32,3.56-9.23s-9-2.26-14.26-.8l-14.17,3.91a8.08,8.08,0,0,1-10.55-7.3l-.49-5.46c-.5-5.48-3.38-6.2-6.4-1.6l-13.25,20.2c-3,4.59-5.73,3.86-6-1.63l0-.79c-.31-5.49.74-12.06,2.33-14.6a103.63,103.63,0,0,1,9.7-11.93l2.51-2.68a13.86,13.86,0,0,1,15.67-2.65l4.22,2.22c4.87,2.56,11.7,6,15.19,7.54s8.68,1.33,11.54-.58,3.37-6,1.15-9.23a53.69,53.69,0,0,0-10.38-10.38c-3.49-2.54-2.81-7.39,1.52-10.79l.42-.33a157.6,157.6,0,0,0,14.7-13.48l3.63-3.86c3.76-4,4-9.63.49-12.49s-9.82-2.33-14.07,1.16l-16.84,13.83c-4.25,3.5-9.58,2.25-11.83-2.77l-2.18-4.83c-2.26-5-5.83-5-8,.11l-9.61,23.07c-2.12,5.07-5.92,10.53-8.46,12.11s-4.84-1.61-5.11-7.1l-.16-3.1a53,53,0,0,1,3-18.64,51.89,51.89,0,0,1,10.77-15.48l21.15-19.79c4-3.76,6.3-11.22,5.08-16.58l-.16-.69c-1.23-5.36-5.74-6.93-10-3.49l-22.47,18.05c-4.29,3.44-8.14,1.77-8.55-3.71l-3.11-41.2c-.41-5.48-1-5.47-1.21,0l-.9,20c-.25,5.5-.66,5.5-.91,0l-.91-20c-.25-5.49-.79-5.5-1.21,0l-3.1,41.2c-.42,5.48-4.27,7.15-8.55,3.71l-22.48-18.05c-4.29-3.44-8.8-1.87-10,3.49l-.16.69c-1.23,5.36,1.06,12.82,5.07,16.58l21.16,19.79a51.85,51.85,0,0,1,10.76,15.48,52.55,52.55,0,0,1,3,18.64l-.15,3.1c-.28,5.49-2.58,8.69-5.12,7.1s-6.34-7-8.46-12.11l-9.61-23.07c-2.11-5.08-5.69-5.13-8-.11l-2.17,4.83c-2.26,5-7.58,6.27-11.83,2.77l-16.85-13.83c-4.25-3.49-10.58-4-14.07-1.16s-3.27,8.47.49,12.49l3.63,3.86a158.88,158.88,0,0,0,14.7,13.48l.43.33c4.32,3.4,5,8.25,1.51,10.79a53.69,53.69,0,0,0-10.38,10.38c-2.22,3.18-1.7,7.33,1.16,9.23s8,2.17,11.53.58,10.33-5,15.2-7.54l4.21-2.22a13.88,13.88,0,0,1,15.68,2.65l2.5,2.68a105,105,0,0,1,9.71,11.93c1.58,2.54,2.63,9.11,2.33,14.6l0,.79c-.3,5.49-3,6.22-6,1.63l-13.25-20.2c-3-4.6-5.89-3.88-6.39,1.6l-.5,5.46a8.08,8.08,0,0,1-10.54,7.3l-14.18-3.91c-5.3-1.46-11.71-1.1-14.25.8s-.94,6.06,3.55,9.23l3.27,2.31c4.5,3.17,9.86,7.06,11.92,8.65l7.5,5.77a139.36,139.36,0,0,0,12.48,7.77l11.39,6.38c4.79,2.68,10.71,8.19,13.14,12.24s4.39,8,4.36,8.66-3.32,1.29-7.31,1.29-11.23-2.08-16.11-4.62l-11.09-5.77c-4.88-2.53-10.43-8.24-12.34-12.69s-6.83-7.81-11-7.49-11.13,1.09-15.57,1.73-11.92-1.18-16.63-4l-26.73-16.17c-4.7-2.85-12.67-3.38-17.71-1.17l-.14,0c-5,2.21-5.38,6.46-.76,9.45l2.82,1.82a91.05,91.05,0,0,0,17,8.32c4.76,1.58,4.17,3.29-1.3,3.79l-5.46.49a53,53,0,0,0-18,5.52l2.31,3.46c2.31,3.46,9.7,4.45,9.7,4.45a156.91,156.91,0,0,1,16.26,3.05c3.48.95,5.56,3.55,4.61,5.77s1.38,6.63,5.19,9.8,2.72,7.39-2.41,9.36l-11.33,4.36c-5.13,2-10.63,6.18-12.21,9.36s1.61,5.76,7.11,5.76h30.38c3.17,0,7.58,2.86,9.8,6.35s7.84,3.93,12.48,1l8.5-5.41c4.64-2.95,8.44-1.73,8.44,2.71s-2.6,9.89-5.77,12.11-1.43,2.82,3.86,1.34l9.58-2.68c5.3-1.48,9.89,1.71,10.21,7.11s3.69,8,7.5,5.77,8.73-2.22,11,0,6,.79,8.35-3.16,4.12-2.71,3.87,2.79l-.22,4.8a10.6,10.6,0,0,1-10.46,10h-40.57a49.07,49.07,0,0,1-18.89-4.59l-18-9.29a78.74,78.74,0,0,0-18.69-6.31c-5.39-.95-6.33,1.13-2.09,4.64l11.11,9.18c4.24,3.5,4.08,6.37-.37,6.37a95.71,95.71,0,0,1-17.81-2.28l-15.13-3.53a56.84,56.84,0,0,1-17.74-8.27l-16.3-12.22c-4.4-3.3-10.85-5.49-14.34-4.85s-6.35,5.05-6.35,9.8-3.63,9.43-8.07,10.39a124.54,124.54,0,0,1-18.07,2.06l-14.62.49c-5.5.18-9,3.19-7.69,6.67s6.64,7.59,11.93,9.1l13.06,3.73a50.57,50.57,0,0,0,19.45.91l17.26-3.24c5.4-1,6.45-.29,2.33,1.62a52.17,52.17,0,0,0-12.69,8.65c-2.86,2.85-2.34,7.53,1.15,10.38s10.15,2.78,14.79-.16l4.57-2.89,15-9.51a19.34,19.34,0,0,1,14.07-1.86c4.12,1.27,3.51,4.4-1.36,6.95l-6.51,3.41c-4.87,2.55-7,7.23-4.82,10.41s4.3,7.84,4.62,10.38,4.6,2.6,9.52.14l2.87-1.44a66.28,66.28,0,0,1,18.89-5.52l2-.21a42.92,42.92,0,0,0,17.94-7.05l2.46-1.84c4.4-3.3,7.48-2.63,6.85,1.5s-5.47,8.77-10.75,10.32l-.42.12c-5.28,1.55-12.84,4.12-16.81,5.71s-5.78,4.83-4,7.21,7.39,2.77,12.55.87l3.15-1.16,14.87-5.48c3-1.11,4.44.71,3.17,4s1.52,3.7,6.21.81l5.46-3.36c4.68-2.88,9.94-3.81,11.69-2.07s5.77,1.1,8.94-1.44a24.74,24.74,0,0,1,13.26-4.61,79.9,79.9,0,0,0,17.14-2.65L8293,7023c5.31-1.45,9.81-3,10-3.36s.22,2.5,0,6.44-.6,7.5-.94,7.92-4.63,2.81-9.53,5.31l-15.05,7.65c-4.91,2.5-13,6.51-17.91,8.91l-2.2,1.07a80.14,80.14,0,0,1-18.87,5.9l-6.2,1a33.2,33.2,0,0,1-18.55-3.46l-1.7-1a179.18,179.18,0,0,0-17.89-8.74c-5.08-2.06-11.31-3.49-13.84-3.17s-2.41,4.47.28,9.23,1.53,8.65-2.59,8.65a117.07,117.07,0,0,1-17.33-1.81l-2.25-.41c-5.41-1-12.43-4-15.61-6.72s-6.67-3.47-7.78-1.73a21.63,21.63,0,0,0-2.6,6.92c-.32,2.07-5.07,3.75-10.57,3.75H8120a86.19,86.19,0,0,1-17.79-2c-4.28-1.11-8.95-1.11-10.38,0a10,10,0,0,0-3.17,5.48c-.32,1.91,2,4.63,5.19,6.06s3.82,4.54,1.44,6.92.07,5.28,5.45,6.44l1.79.39c5.38,1.16,9.9,4.45,10.06,7.3s4.75,4.56,10.19,3.78l.39-.06c5.44-.77,9.77,1.83,9.61,5.8s3.22,6.3,7.5,5.19,10.12-.46,13,1.44,7.52,4.89,10.38,6.64a26.14,26.14,0,0,0,11.53,3.17,20.31,20.31,0,0,1,11.54,4.61,89.75,89.75,0,0,0,10.38,7.79c2.86,1.74,8.7,2.26,13,1.15s9.86-4.61,12.4-7.78,6.56-5.64,8.94-5.48a10.22,10.22,0,0,1,6.92,4.32c1.43,2.22,6.23,2.22,10.67,0s12-6.22,16.82-8.89a8,8,0,0,1,3.37-.91h1.73c4.76,1.27,12,.23,16.15-2.31l.58-1.73c.57-1.73,3.48-3.87,3.48-3.87a94.77,94.77,0,0,1,9-6.19c.53-.14,1.52,3.41,2.22,7.89s-.39,9.26-2.4,10.63-7.93,3.92-13.15,5.66l-5.25,1.75a123.68,123.68,0,0,0-18.14,8.07,68.44,68.44,0,0,1-18.51,6.57l-17.77,3a143.55,143.55,0,0,1-19.86,1.67h-9.42c-5.5,0-12.2-1.17-14.9-2.59s-6.72-5.58-8.94-9.23-7.15-5.6-11-4.33-9,.49-11.53-1.73-9.05-4.8-14.47-5.72l-.48-.09c-5.42-.93-11.54-.65-13.6.62s-7,2.83-11,3.46-4.49,3.88-1.16,7.21a58.33,58.33,0,0,1,8.65,11,7.93,7.93,0,0,1-1.73,8.94,10.44,10.44,0,0,1-10.09,1.73c-3.17-1.27-9.74-4.41-14.61-7l-1.93-1c-4.86-2.57-10.78-5.07-13.16-5.54s-3.81,2.25-3.18,6.05-1.31,7.57-4.32,8.37-9.92.7-15.35-.21l-11.41-1.9a92.47,92.47,0,0,0-15.35-1.35c-3,.15-4.44,2.62-3.17,5.48s6.7,6.14,12.08,7.31a19.74,19.74,0,0,1,5.22,1.91c1.73,1.16,12.53,2.06,12.53,2.06,5.48.45,9.06,2.64,7.95,4.87a15.39,15.39,0,0,0-1.44,7.78c.31,2.06,5.07,3.75,10.57,3.75h3.08c5.5,0,10.13,1.43,10.28,3.17s4.76,3.75,10.21,4.45l2.66.34c5.45.7,9.92,4.38,9.92,8.19l1.73,3.46c1.73,3.46,9.12-1.74,9.12-1.74,4.5-3.17,10.91-3.92,14.24-1.67a63.42,63.42,0,0,1,10.67,9.52c2.54,3,6.82,7.5,9.51,10s6.46,6.3,8.37,8.37a32.38,32.38,0,0,0,8.36,6.05,102.63,102.63,0,0,1,9.81,5.48c2.69,1.75,9,1.39,14.08-.79l7-3c5.05-2.18,8.66-.59,8,3.53s-5.49,8.67-10.8,10.1l-25.68,6.91a188.8,188.8,0,0,1-19.57,3.94l-10.17,1.37a179.75,179.75,0,0,1-19.72,1.33,85.08,85.08,0,0,1-17.59-2,65,65,0,0,1-16.11-7.56l-2.39-1.6c-4.57-3.05-8.32-1.26-8.32,4a9.69,9.69,0,0,1-9.8,9.52c-5.4,0-12.41-.91-15.58-2a19.38,19.38,0,0,0-11.24,0c-3,1.11-7.43,2.93-9.81,4s-.28,4,4.67,6.38l2.2,1.07c4.94,2.4,9.9,6.58,11,9.27a23.42,23.42,0,0,1,1.44,9.81c-.32,2.7,3.93,4.9,9.43,4.9h.76c5.5,0,10.39,2,10.86,4.33s2.95,5.88,5.48,7.78,7.73,2.56,11.54,1.45a72.72,72.72,0,0,0,11.25-4.33c2.38-1.27,3.29.29,2,3.46s-1,7.2.57,8.94,7.39,3.17,12.89,3.17h4.8c5.5,0,9.87,1,9.71,2.31s-1.85,3.35-3.75,4.61-7.8,3.52-13.09,5l-1.5.41a87.89,87.89,0,0,1-19.63,2.68H8090c-5.5,0-13-1.56-16.63-3.46a106,106,0,0,1-13-8.36c-3.49-2.7-7.9-2.83-9.8-.29a58.09,58.09,0,0,0-5.19,8.36c-.95,2.06-5.24,2.71-9.52,1.44a52.57,52.57,0,0,0-16.73-1.44c-4.91.48-7.77,2.16-6.34,3.75s5.45,4.18,8.94,5.77,9.59,4.05,13.55,5.48,6.18,4.8,4.91,7.5a5.47,5.47,0,0,0,2.3,7.21c2.54,1.26,9,1.21,14.32-.12l3.67-.92c5.33-1.33,9.85-1.27,10,.15s-1.89,3.64-4.62,4.93-9.19,3.84-14.38,5.66l-32.85,11.56c-5.19,1.82-6.58,2.41-3.09,1.3s7.25-.2,8.36,2,5.79,3.12,10.39,2,12.75-3,18.11-4.25l77.78-17.81a67.25,67.25,0,0,1,19.67-.94l.35.05c5.46.71,11.15,2.78,12.66,4.59s6.57,4.47,11.25,5.9,12.78,1.2,18-.51c0,0,18.76-6.13,20.49-5.55s-7.28,10.92-7.28,10.92c-3.61,4.14-11.07,7.39-16.56,7.22l-77.87-2.47c-5.5-.18-11.42,1.27-13.16,3.21s-6.83,2.61-11.3,1.5-12.59-1.41-18-.66l-16.36,2.27c-5.45.75-5.52,2.35-.15,3.55l7,1.56c5.36,1.2,7.93,2.82,5.71,3.58s-8.1,3.37-13,5.77l-3.36,1.64c-4.94,2.4-12.75,5.8-17.35,7.54a112.8,112.8,0,0,1-18.24,4.78l-5.06.83a146.63,146.63,0,0,1-19.39,1.6c-5.23,0-14,.52-19.45,1.14L7953.4,7432c-5.47.63-9.94,3.22-9.94,5.76s-2.33,6-5.19,7.78-9.69,3.17-15.19,3.17h-16.34c-5.5,0-10,2.08-10,4.62s2.86,6.17,6.35,8.07,10.77,4.25,16.19,5.2l9.72,1.72c5.42.95,6.86,5,3.21,8.95s-2.48,7.2,2.6,7.2,9.49,2.08,9.81,4.62,3.82,4.61,7.78,4.61h19.13c5.5,0,11.69.65,13.75,1.45a5.33,5.33,0,0,1,3.46,4.9c-.16,1.9,2.7,3.46,6.34,3.46s7.68-2.47,8.94-5.48,5.69-3.92,9.81-2l-1.15,4.61c-1.16,4.62,1.57,4.87,1.57,4.87,5.48.5,14.46.9,20,.9h8.27c5.5,0,10.51-4.15,11.15-9.23s2.84-9.09,4.9-8.94,5.57,2.5,7.79,5.2,7.15,1.65,11-2.31l.55-.58c3.82-4,8.49-3,10.39,2.17a10.86,10.86,0,0,1,.58,3.31v1.73c2.86.95,6.84-2.46,8.86-7.57l.17-.43c2-5.12,5.48-7.75,7.7-5.84s8.54,3.42,14,3.37l80.74-.75c5.5-.05,9.61,2.24,9.13,5.1s-5.34,5.61-10.82,6.14l-80.83,7.69a174.75,174.75,0,0,0-19.68,3.25l-14.57,3.46c-5.36,1.27-12.85,3.09-16.66,4a86,86,0,0,1-16.92,1.73h-22.3c-1.9,0,1,.63,6.44,1.39l67.68,9.55c5.44.76,14.29,2.36,19.67,3.54l4.11.9a100.17,100.17,0,0,0,17.55,2.14c4.29,0,7,2.47,6.06,5.48s-6.23,5.48-11.73,5.48h-6c-5.5,0-14.49.2-20,.43l-100.56,4.33c-5.5.24-14.46,1-19.92,1.66l-26.87,3.32c-5.46.67-14.34,2.09-19.74,3.15l-9.79,1.92c-5.4,1.05-8.51,4.13-6.93,6.82s7.39,4.9,12.89,4.9h.76a72.23,72.23,0,0,1,17.5,2.31c4.12,1.27,5.81,3.61,3.75,5.19s-7.51,4.05-12.11,5.48-9.92,4.93-11.83,7.79.56,5.19,5.48,5.19h13a7.16,7.16,0,0,1,5.77,3.17c.95,1.75,5.36,3.17,9.8,3.17s9.25,1.56,10.67,3.47,6.23.8,10.68-2.44l5.18-3.78c4.44-3.24,7.2-1.48,6.12,3.91l-.12.57a7.9,7.9,0,0,0,8,9.81h.77c5.5,0,10.65-1.82,11.44-4s4-.53,7.21,3.75,9.95,6.14,15.07,4.12l22.34-8.81c5.12-2,7.85.59,6.07,5.79l-1,3c-1.78,5.21,1.1,8.26,6.39,6.79l11.88-3.3c5.3-1.47,9.51-.73,9.35,1.65s2.69,5.49,6.34,6.92,9,3.77,11.83,5.19,7.78.78,11-1.44,8.1-2.22,10.95,0,9.6,5,15,6.12l7.54,1.61c5.38,1.14,6.08,4.63,1.55,7.75l-.26.18a95.3,95.3,0,0,1-17.62,9.14l-3.15,1.16a142.52,142.52,0,0,1-18.32,5.19c-4.92.95-9.93-2.66-11.15-8l-2.5-11.06c-1.22-5.36-4.53-5.89-7.36-1.18l-10.47,17.46c-2.83,4.72-9.43,8.58-14.66,8.58a135.81,135.81,0,0,0-17,1.15c-4.12.63-9.83-1.18-12.69-4s-7.14-3.63-9.51-1.73-8.62,2.09-13.86.42l-8.05-2.57c-5.24-1.67-12.26-1.48-15.59.42s-9.69,3.46-14.13,3.46-12.56.33-18.05.73l-6.2.46a45.7,45.7,0,0,1-19-3.48l-3.39-1.57c-5-2.32-10.8-3.35-12.92-2.29s-3.15,4.6-2.31,7.88a11.06,11.06,0,0,0,7.5,7.31c3.28.74,10.28,2.61,15.56,4.17l.42.12c5.28,1.55,11.93,2.82,14.78,2.82s5.28,1.9,5.39,4.23-4.24,3.47-9.67,2.54l-4.89-.84c-5.42-.94-11.94,0-14.47,2.15s-2.46,4.62.19,5.57,9.3,1.73,14.8,1.73h11.15c5.5,0,8,2.34,5.58,5.19a50.49,50.49,0,0,0-5.77,8.08c-.74,1.58.82,3.32,3.46,3.84s7.49-.94,10.77-3.26,5.7-2,5.38.76,3.91,4.61,9.39,4.13l15.07-1.33c5.47-.48,11.77.42,14,2s3.09,4,1.93,5.38,2.38,2.5,7.88,2.5h14.23c5.5,0,8.61,3.29,6.92,7.31s1.4,7.75,6.87,8.28l3.56.35c5.47.54,13.24-1.79,17.25-5.17s7.83-3.38,8.46,0-2.43,8.87-6.82,12.18l-1.35,1a66.89,66.89,0,0,1-17.56,8.89l-6.6,2c-5.27,1.57-13.94,4-19.27,5.31l-18.68,4.71a153.79,153.79,0,0,1-19.66,3.36l-9.69.88c-5.47.49-13.16,0-17.07-1s-7.89-5.56-8.84-10-2.25-11.19-2.89-15-3.4-8.14-6.15-9.62-8.81-1.82-13.46-.77-10.1-.93-12.11-4.42-7.81-8-12.88-10-12.78-2.27-17.11-.57a98.43,98.43,0,0,0-16.15,8.71l-.39.27c-4.55,3.09-9.56,3-11.15-.33s-6.08-7.87-10-10.19-6.54.23-5.84,5.69l1.69,13.23a11.5,11.5,0,0,1-8.44,12.3l-2.5.62a59.83,59.83,0,0,0-16.63,7.19c-3.81,2.64-7.79,7.75-8.84,11.34a10.91,10.91,0,0,0,3.46,10.77,63.09,63.09,0,0,0,13.26,7.3c4.34,1.7,12.36,2.63,17.83,2.07l6.64-.67c5.47-.56,7.35,2.62,4.18,7.06s-9.49,8.08-14,8.08-7.32,4.4-6.17,9.78a4.8,4.8,0,0,0,1.37,2.14c1.15,1.15,15,.48,15,.48,5.5-.26,7,2.29,3.46,5.67s-2.48,8.09,2.49,10.45c0,0,7.12,3.39,7.89,2.24l.77-1.15c4.44-3.18,8.24-2.83,8.46.77s4.73,7.7,10,9.13l.68.19c5.31,1.43,14,3.91,19.22,5.51,0,0,13.12,4,13.12,2.47s8.73-6.78,8.73-6.78c4.72-2.83,10.05-1.51,11.85,2.93s7.38,6.27,12.42,4.05l14-6.17a9.93,9.93,0,0,1,13.11,5.15l.54,1.25a8.48,8.48,0,0,0,12.51,4l9.44-5.75c4.7-2.86,12.7-3.55,17.77-1.54a50.46,50.46,0,0,0,18.85,2.88,78,78,0,0,0,18.45-4.23c4.87-1.9,10.92-.35,13.46,3.46s.83,8.91-3.8,11.34a66.48,66.48,0,0,1-18.31,5.79l-22.2,3-19.81,2.75-2.11.3a87.49,87.49,0,0,1-19.81.05l-2.87-.39c-5.45-.74-12.68-3.68-16.06-6.54s-10.14-3.2-15-.77a50,50,0,0,1-18.84,4.43h-8.46a171.9,171.9,0,0,0-19.9,1.39l-12.88,1.82c-5.45.77-8.61,3.82-7,6.78s6.95,5.82,11.92,6.35a54.62,54.62,0,0,0,18.57-2.07l14.78-4.71c5.24-1.66,5.8-.5,1.25,2.59l-15.75,10.69c-4.55,3.08-5.68,8.21-2.51,11.38a80.36,80.36,0,0,0,14.49,10.67l1,.58c4.8,2.69,13.13,4,18.52,2.94l9.23-1.85c5.39-1.08,13.19,1,17.33,4.63l3.41,3c4.14,3.62,3.31,8.16-1.84,10.09l-9,3.36a41.85,41.85,0,0,1-19.18,1.6l-21.89-4.25c-5.4-1.05-13.65.46-18.32,3.35l-7.22,4.47a41.52,41.52,0,0,1-18.51,5.26h-1.91c-5.5,0-8.72,4.32-7.16,9.59l3.54,12a11.29,11.29,0,0,0,12.67,7.7l10.35-2c5.4-1,7.08,1.69,3.74,6.06l-2.84,3.72a8.91,8.91,0,0,0,2,13.13,93.88,93.88,0,0,0,17.56,8.36l1.79.59a73.34,73.34,0,0,0,19.29,3.17,63.14,63.14,0,0,0,19.13-3.63l22.89-8.9c5.12-2,13.45-1.85,18.51.32l5.84,2.5c5.05,2.17,13.37,5.61,18.48,7.65l10.27,4.11c5.1,2,13,1.12,17.45-2.05l22.88-16.15a10.83,10.83,0,0,1,14.45,2l16.28,20.2a11.55,11.55,0,0,0,14.74,2.45l14.22-8.95a146.09,146.09,0,0,1,17.69-9.19l31.16-13a44.25,44.25,0,0,1,19.14-2.61l36.34,4.58a38.66,38.66,0,0,0,18.86-3.24l20.86-10.47c4.91-2.47,13-2.47,17.87,0l20.86,10.47a42.23,42.23,0,0,0,18.9,3.68l66.93-5.46A48.69,48.69,0,0,1,8436,7995l31.15,13a145.35,145.35,0,0,1,17.69,9.19l14.22,8.95a11.55,11.55,0,0,0,14.74-2.45l16.28-20.2a10.83,10.83,0,0,1,14.45-2l22.88,16.15c4.5,3.17,12.35,4.09,17.46,2.05l10.27-4.11c5.1-2,13.42-5.48,18.47-7.65l5.85-2.5c5.05-2.17,13.38-2.31,18.51-.32l22.89,8.9a63,63,0,0,0,19.12,3.63,73.28,73.28,0,0,0,19.29-3.17l1.79-.59a94,94,0,0,0,17.57-8.36,8.91,8.91,0,0,0,2-13.13l-2.85-3.72c-3.34-4.37-1.66-7.1,3.75-6.06l10.35,2a11.28,11.28,0,0,0,12.66-7.7l3.55-12c1.56-5.27-1.66-9.59-7.16-9.59H8739a41.44,41.44,0,0,1-18.5-5.26l-7.22-4.47c-4.68-2.89-12.92-4.4-18.32-3.35l-21.9,4.25a41.85,41.85,0,0,1-19.18-1.6l-9-3.36c-5.15-1.93-6-6.47-1.83-10.09l3.4-3c4.14-3.63,11.94-5.71,17.33-4.63l9.23,1.85c5.39,1.08,13.73-.25,18.52-2.94l1-.58a80.62,80.62,0,0,0,14.48-10.67c3.17-3.17,2-8.3-2.51-11.38l-15.75-10.69c-4.55-3.09-4-4.25,1.26-2.59l14.78,4.71a54.54,54.54,0,0,0,18.56,2.07c5-.53,10.34-3.39,11.92-6.35s-1.57-6-7-6.78l-12.89-1.82a171.9,171.9,0,0,0-19.9-1.39h-8.45a50.08,50.08,0,0,1-18.85-4.43c-4.86-2.43-11.61-2.08-15,.77s-10.61,5.8-16.06,6.54l-2.87.39a87.49,87.49,0,0,1-19.81-.05l-2.12-.3-19.81-2.75-22.19-3a66.55,66.55,0,0,1-18.32-5.79c-4.63-2.43-6.34-7.53-3.8-11.34s8.6-5.36,13.46-3.46a78,78,0,0,0,18.46,4.23,50.4,50.4,0,0,0,18.84-2.88c5.08-2,13.07-1.32,17.77,1.54l9.45,5.75a8.47,8.47,0,0,0,12.5-4l.54-1.25a9.94,9.94,0,0,1,13.11-5.15l14,6.17c5,2.22,10.62.4,12.42-4.05s7.13-5.76,11.84-2.93c0,0,8.73,5.24,8.73,6.78s13.12-2.47,13.12-2.47c5.26-1.6,13.91-4.08,19.22-5.51l.69-.19c5.31-1.43,9.83-5.54,10-9.13s4-3.95,8.46-.77l.77,1.15c.76,1.15,7.89-2.24,7.89-2.24,5-2.36,6.08-7.07,2.49-10.45s-2-5.93,3.45-5.67c0,0,13.85.67,15-.48a4.83,4.83,0,0,0,1.36-2.14c1.15-5.38-1.62-9.78-6.17-9.78s-10.86-3.64-14-8.08-1.29-7.62,4.18-7.06l6.64.67C8778,7796.49,8786,7795.56,8790.35,7793.86Zm-474.63-688.3c-.44-3.25-.44-5.94,0-6a14.59,14.59,0,0,1,1.62,0c.44,0,.44,2.72,0,6S8316.17,7108.82,8315.72,7105.56Zm3.08-96c-1.25,2.32-3.29,2.32-4.53,0s-1.25-5.59,0-7.29a2.65,2.65,0,0,1,4.53,0C8320,7004,8320,7007.29,8318.8,7009.6Z" transform="translate(-5279.5 -6119.5)"/></g></g></svg>